<mxfile host="app.diagrams.net" modified="2023-05-26T00:08:33.270Z" agent="Mozilla/5.0 (Windows NT 10.0; Win64; x64) AppleWebKit/537.36 (KHTML, like Gecko) Chrome/113.0.0.0 Safari/537.36" etag="dS0yc8vk0lJnWNNtcMI6" version="21.3.2" type="github">
  <diagram name="Page-1" id="XZFPqiw6QNpKCiWWQVgb">
    <mxGraphModel dx="1247" dy="727" grid="1" gridSize="10" guides="1" tooltips="1" connect="1" arrows="1" fold="1" page="1" pageScale="1" pageWidth="850" pageHeight="1100" math="0" shadow="0">
      <root>
        <mxCell id="0" />
        <mxCell id="1" parent="0" />
        <mxCell id="sTTEQqAu_dGQGKX-7XJ9-28" value="Legacy Login System WSFed (MVC)" style="outlineConnect=0;dashed=0;verticalLabelPosition=bottom;verticalAlign=top;align=center;html=1;shape=mxgraph.aws3.ec2;fillColor=#F58534;gradientColor=none;" vertex="1" parent="1">
          <mxGeometry x="190" y="313.75" width="76.5" height="93" as="geometry" />
        </mxCell>
        <mxCell id="sTTEQqAu_dGQGKX-7XJ9-61" style="edgeStyle=orthogonalEdgeStyle;rounded=0;orthogonalLoop=1;jettySize=auto;html=1;entryX=0.5;entryY=0;entryDx=0;entryDy=0;entryPerimeter=0;" edge="1" parent="1" source="sTTEQqAu_dGQGKX-7XJ9-29" target="sTTEQqAu_dGQGKX-7XJ9-54">
          <mxGeometry relative="1" as="geometry" />
        </mxCell>
        <mxCell id="sTTEQqAu_dGQGKX-7XJ9-29" value="Identity OIDC" style="outlineConnect=0;dashed=0;verticalLabelPosition=bottom;verticalAlign=top;align=center;html=1;shape=mxgraph.aws3.ec2;fillColor=#F58534;gradientColor=none;" vertex="1" parent="1">
          <mxGeometry x="490" y="350" width="76.5" height="93" as="geometry" />
        </mxCell>
        <mxCell id="sTTEQqAu_dGQGKX-7XJ9-31" value="SessionDB" style="outlineConnect=0;dashed=0;verticalLabelPosition=bottom;verticalAlign=top;align=center;html=1;shape=mxgraph.aws3.rds;fillColor=#2E73B8;gradientColor=none;" vertex="1" parent="1">
          <mxGeometry x="190" y="200" width="72" height="81" as="geometry" />
        </mxCell>
        <mxCell id="sTTEQqAu_dGQGKX-7XJ9-32" value="EventStore" style="outlineConnect=0;dashed=0;verticalLabelPosition=bottom;verticalAlign=top;align=center;html=1;shape=mxgraph.aws3.sqs;fillColor=#D9A741;gradientColor=none;" vertex="1" parent="1">
          <mxGeometry x="1330" y="350" width="76.5" height="93" as="geometry" />
        </mxCell>
        <mxCell id="sTTEQqAu_dGQGKX-7XJ9-34" value="IdentityServer.Api" style="sketch=0;html=1;dashed=0;whitespace=wrap;fillColor=#2875E2;strokeColor=#ffffff;points=[[0.005,0.63,0],[0.1,0.2,0],[0.9,0.2,0],[0.5,0,0],[0.995,0.63,0],[0.72,0.99,0],[0.5,1,0],[0.28,0.99,0]];verticalLabelPosition=bottom;align=center;verticalAlign=top;shape=mxgraph.kubernetes.icon;prIcon=pod" vertex="1" parent="1">
          <mxGeometry x="980" y="281" width="50" height="48" as="geometry" />
        </mxCell>
        <mxCell id="sTTEQqAu_dGQGKX-7XJ9-35" value="UserProfile.Api" style="sketch=0;html=1;dashed=0;whitespace=wrap;fillColor=#2875E2;strokeColor=#ffffff;points=[[0.005,0.63,0],[0.1,0.2,0],[0.9,0.2,0],[0.5,0,0],[0.995,0.63,0],[0.72,0.99,0],[0.5,1,0],[0.28,0.99,0]];verticalLabelPosition=bottom;align=center;verticalAlign=top;shape=mxgraph.kubernetes.icon;prIcon=pod" vertex="1" parent="1">
          <mxGeometry x="910" y="400" width="50" height="66.5" as="geometry" />
        </mxCell>
        <mxCell id="sTTEQqAu_dGQGKX-7XJ9-37" value="Policy.Api" style="sketch=0;html=1;dashed=0;whitespace=wrap;fillColor=#2875E2;strokeColor=#ffffff;points=[[0.005,0.63,0],[0.1,0.2,0],[0.9,0.2,0],[0.5,0,0],[0.995,0.63,0],[0.72,0.99,0],[0.5,1,0],[0.28,0.99,0]];verticalLabelPosition=bottom;align=center;verticalAlign=top;shape=mxgraph.kubernetes.icon;prIcon=pod" vertex="1" parent="1">
          <mxGeometry x="1010" y="550" width="50" height="48" as="geometry" />
        </mxCell>
        <mxCell id="sTTEQqAu_dGQGKX-7XJ9-38" value="IdentityConfig.Api" style="sketch=0;html=1;dashed=0;whitespace=wrap;fillColor=#2875E2;strokeColor=#ffffff;points=[[0.005,0.63,0],[0.1,0.2,0],[0.9,0.2,0],[0.5,0,0],[0.995,0.63,0],[0.72,0.99,0],[0.5,1,0],[0.28,0.99,0]];verticalLabelPosition=bottom;align=center;verticalAlign=top;shape=mxgraph.kubernetes.icon;prIcon=pod" vertex="1" parent="1">
          <mxGeometry x="1110" y="160" width="50" height="48" as="geometry" />
        </mxCell>
        <mxCell id="sTTEQqAu_dGQGKX-7XJ9-39" value="" style="outlineConnect=0;dashed=0;verticalLabelPosition=bottom;verticalAlign=top;align=center;html=1;shape=mxgraph.aws3.rds;fillColor=#2E73B8;gradientColor=none;" vertex="1" parent="1">
          <mxGeometry x="1049" y="406.75" width="51" height="53" as="geometry" />
        </mxCell>
        <mxCell id="sTTEQqAu_dGQGKX-7XJ9-40" value="" style="outlineConnect=0;dashed=0;verticalLabelPosition=bottom;verticalAlign=top;align=center;html=1;shape=mxgraph.aws3.rds;fillColor=#2E73B8;gradientColor=none;" vertex="1" parent="1">
          <mxGeometry x="1100" y="281" width="51" height="53" as="geometry" />
        </mxCell>
        <mxCell id="sTTEQqAu_dGQGKX-7XJ9-41" value="" style="outlineConnect=0;dashed=0;verticalLabelPosition=bottom;verticalAlign=top;align=center;html=1;shape=mxgraph.aws3.rds;fillColor=#2E73B8;gradientColor=none;" vertex="1" parent="1">
          <mxGeometry x="1200" y="160" width="50" height="50" as="geometry" />
        </mxCell>
        <mxCell id="sTTEQqAu_dGQGKX-7XJ9-42" value="" style="outlineConnect=0;dashed=0;verticalLabelPosition=bottom;verticalAlign=top;align=center;html=1;shape=mxgraph.aws3.rds;fillColor=#2E73B8;gradientColor=none;" vertex="1" parent="1">
          <mxGeometry x="1090" y="547.5" width="51" height="53" as="geometry" />
        </mxCell>
        <mxCell id="sTTEQqAu_dGQGKX-7XJ9-43" value="PolicyProjector" style="image;html=1;image=img/lib/clip_art/people/Construction_Worker_Man_128x128.png" vertex="1" parent="1">
          <mxGeometry x="1190" y="518" width="80" height="80" as="geometry" />
        </mxCell>
        <mxCell id="sTTEQqAu_dGQGKX-7XJ9-44" value="UserProfileProjector" style="image;html=1;image=img/lib/clip_art/people/Construction_Worker_Man_128x128.png" vertex="1" parent="1">
          <mxGeometry x="1185" y="375" width="80" height="80" as="geometry" />
        </mxCell>
        <mxCell id="sTTEQqAu_dGQGKX-7XJ9-46" value="" style="image;points=[];aspect=fixed;html=1;align=center;shadow=0;dashed=0;image=img/lib/allied_telesis/computer_and_terminals/Personal_Computer.svg;" vertex="1" parent="1">
          <mxGeometry x="920" y="170" width="45.6" height="61.800000000000004" as="geometry" />
        </mxCell>
        <mxCell id="sTTEQqAu_dGQGKX-7XJ9-47" value="IdentityServer.Web" style="image;points=[];aspect=fixed;html=1;align=center;shadow=0;dashed=0;image=img/lib/allied_telesis/computer_and_terminals/Personal_Computer.svg;" vertex="1" parent="1">
          <mxGeometry x="850" y="274.1" width="45.6" height="61.800000000000004" as="geometry" />
        </mxCell>
        <mxCell id="sTTEQqAu_dGQGKX-7XJ9-48" value="" style="image;points=[];aspect=fixed;html=1;align=center;shadow=0;dashed=0;image=img/lib/allied_telesis/computer_and_terminals/Personal_Computer.svg;" vertex="1" parent="1">
          <mxGeometry x="790" y="413.5" width="45.6" height="61.800000000000004" as="geometry" />
        </mxCell>
        <mxCell id="sTTEQqAu_dGQGKX-7XJ9-49" value="" style="whiteSpace=wrap;html=1;aspect=fixed;fillColor=none;" vertex="1" parent="1">
          <mxGeometry x="780.5" y="80" width="690" height="690" as="geometry" />
        </mxCell>
        <mxCell id="sTTEQqAu_dGQGKX-7XJ9-58" style="edgeStyle=orthogonalEdgeStyle;rounded=0;orthogonalLoop=1;jettySize=auto;html=1;" edge="1" parent="1" source="sTTEQqAu_dGQGKX-7XJ9-52" target="sTTEQqAu_dGQGKX-7XJ9-29">
          <mxGeometry relative="1" as="geometry" />
        </mxCell>
        <mxCell id="sTTEQqAu_dGQGKX-7XJ9-52" value="LegacyLogin Consumer" style="sketch=0;html=1;dashed=0;whitespace=wrap;fillColor=#2875E2;strokeColor=#ffffff;points=[[0.005,0.63,0],[0.1,0.2,0],[0.9,0.2,0],[0.5,0,0],[0.995,0.63,0],[0.72,0.99,0],[0.5,1,0],[0.28,0.99,0]];verticalLabelPosition=bottom;align=center;verticalAlign=top;shape=mxgraph.kubernetes.icon;prIcon=pod" vertex="1" parent="1">
          <mxGeometry x="503" y="183.8" width="47" height="46.2" as="geometry" />
        </mxCell>
        <mxCell id="sTTEQqAu_dGQGKX-7XJ9-63" style="edgeStyle=orthogonalEdgeStyle;rounded=0;orthogonalLoop=1;jettySize=auto;html=1;" edge="1" parent="1" source="sTTEQqAu_dGQGKX-7XJ9-53" target="sTTEQqAu_dGQGKX-7XJ9-28">
          <mxGeometry relative="1" as="geometry" />
        </mxCell>
        <mxCell id="sTTEQqAu_dGQGKX-7XJ9-53" value="Identity Consumer" style="sketch=0;html=1;dashed=0;whitespace=wrap;fillColor=#2875E2;strokeColor=#ffffff;points=[[0.005,0.63,0],[0.1,0.2,0],[0.9,0.2,0],[0.5,0,0],[0.995,0.63,0],[0.72,0.99,0],[0.5,1,0],[0.28,0.99,0]];verticalLabelPosition=bottom;align=center;verticalAlign=top;shape=mxgraph.kubernetes.icon;prIcon=pod" vertex="1" parent="1">
          <mxGeometry x="190" y="499.5" width="50" height="48" as="geometry" />
        </mxCell>
        <mxCell id="sTTEQqAu_dGQGKX-7XJ9-62" style="edgeStyle=orthogonalEdgeStyle;rounded=0;orthogonalLoop=1;jettySize=auto;html=1;entryX=1;entryY=0.719;entryDx=0;entryDy=0;entryPerimeter=0;" edge="1" parent="1" source="sTTEQqAu_dGQGKX-7XJ9-54" target="sTTEQqAu_dGQGKX-7XJ9-53">
          <mxGeometry relative="1" as="geometry" />
        </mxCell>
        <mxCell id="sTTEQqAu_dGQGKX-7XJ9-54" value="LegacyLoginProjector" style="sketch=0;html=1;dashed=0;whitespace=wrap;fillColor=#2875E2;strokeColor=#ffffff;points=[[0.005,0.63,0],[0.1,0.2,0],[0.9,0.2,0],[0.5,0,0],[0.995,0.63,0],[0.72,0.99,0],[0.5,1,0],[0.28,0.99,0]];verticalLabelPosition=bottom;align=center;verticalAlign=top;shape=mxgraph.kubernetes.icon;prIcon=pod" vertex="1" parent="1">
          <mxGeometry x="503" y="510" width="50" height="48" as="geometry" />
        </mxCell>
        <mxCell id="sTTEQqAu_dGQGKX-7XJ9-59" style="edgeStyle=orthogonalEdgeStyle;rounded=0;orthogonalLoop=1;jettySize=auto;html=1;" edge="1" parent="1" source="sTTEQqAu_dGQGKX-7XJ9-55" target="sTTEQqAu_dGQGKX-7XJ9-56">
          <mxGeometry relative="1" as="geometry" />
        </mxCell>
        <mxCell id="sTTEQqAu_dGQGKX-7XJ9-55" value="IdentityProjector" style="sketch=0;html=1;dashed=0;whitespace=wrap;fillColor=#2875E2;strokeColor=#ffffff;points=[[0.005,0.63,0],[0.1,0.2,0],[0.9,0.2,0],[0.5,0,0],[0.995,0.63,0],[0.72,0.99,0],[0.5,1,0],[0.28,0.99,0]];verticalLabelPosition=bottom;align=center;verticalAlign=top;shape=mxgraph.kubernetes.icon;prIcon=pod" vertex="1" parent="1">
          <mxGeometry x="203.25" y="112" width="50" height="48" as="geometry" />
        </mxCell>
        <mxCell id="sTTEQqAu_dGQGKX-7XJ9-60" style="edgeStyle=orthogonalEdgeStyle;rounded=0;orthogonalLoop=1;jettySize=auto;html=1;" edge="1" parent="1" source="sTTEQqAu_dGQGKX-7XJ9-56" target="sTTEQqAu_dGQGKX-7XJ9-52">
          <mxGeometry relative="1" as="geometry" />
        </mxCell>
        <mxCell id="sTTEQqAu_dGQGKX-7XJ9-56" value="" style="outlineConnect=0;dashed=0;verticalLabelPosition=bottom;verticalAlign=top;align=center;html=1;shape=mxgraph.aws3.sqs;fillColor=#D9A741;gradientColor=none;" vertex="1" parent="1">
          <mxGeometry x="349" y="77" width="76.5" height="93" as="geometry" />
        </mxCell>
      </root>
    </mxGraphModel>
  </diagram>
</mxfile>
